# xmcd
#
# Track frame offsets:
#	150
#	21312
#	40225
#	66725
#	85050
#	110112
#	134487
#	156600
#	181387
#	205375
#
# Disc length: 2993 seconds
#
# Revision: 2
# Processed by: cddbd v1.4PL0 Copyright (c) Steve Scherf et al.
# Submitted via: EasyCDDAExtractor 5.0.7
#
DISCID=9c0baf0a
DTITLE=Various Artist - Tuyet Khuc Tinh Yeu
DYEAR=1900
DGENRE=VietPop
TTITLE0=Vu Khanh - Mo Ve Em
TTITLE1=Y Lan - Sao Danh Xa Nhau
TTITLE2=Kieu Nga - Loi Tinh Buon
TTITLE3=Y Lan - Loi Buon Thanh
TTITLE4=Y Lan - Di Giua Hoang Hon
TTITLE5=Y Lan - Le Da
TTITLE6=Vu Khanh - Khuc Thuy Du
TTITLE7=Y Lan - Goi Giac Mo Xua
TTITLE8=Kieu Nga - Tieng Mua Dem
TTITLE9=Y Lan - Tinh Lo Tram Nam
EXTD=ID3G: 254
EXTT0=
EXTT1=
EXTT2=
EXTT3=
EXTT4=
EXTT5=
EXTT6=
EXTT7=
EXTT8=
EXTT9=
PLAYORDER=
